<svg width="1370.134" height="792" xmlns="http://www.w3.org/2000/svg">
 <defs>
  <linearGradient gradientUnits="objectBoundingBox" y2="1" x2="0" y1="0.01" x1="1" id="linear-gradient-2">
   <stop stop-opacity="0.161" stop-color="#fff" offset="0"/>
   <stop stop-opacity="0" stop-color="#fff" offset="1"/>
  </linearGradient>
  <linearGradient gradientUnits="objectBoundingBox" y2="1" x2="0" y1="0.01" x1="1" id="linear-gradient-3">
   <stop stop-opacity="0.2" stop-color="#fff" offset="0"/>
   <stop stop-opacity="0" stop-color="#fff" offset="1"/>
  </linearGradient>
 </defs>
 <g>
  <title>background</title>
  <rect fill="none" id="canvas_background" height="602" width="802" y="-1" x="-1"/>
 </g>
 <g>
  <title>Layer 1</title>
  <g id="Group_182">
   <path fill="#010002" d="m-1,793s138.5,-112.93 310,-121.387s208.5,80.593 376,87.558s159.5,-115.417 308,-125.371s188.5,92.533 286,85.568s90,-47.759 90,-47.759l0,-670.609l-1370,0l0,792z" id="Path_152"/>
   <path fill="url(#linear-gradient-2)" d="m3,2l316.021,0c17.926,205.709 285.765,234.539 133.979,302c-162,72 -212,170 -168,270c19.387,44.062 32.951,76.089 42.058,98.13c-4.58,0.088 -9.274,0.248 -14.058,0.484c-171.5,8.457 -310,121.386 -310,121.386l0,-792z" id="Path_196"/>
   <path fill="url(#linear-gradient-3)" d="m973,328c98,-120 -200,-10 -234,-116c-25.527,-79.584 5.034,-151.278 48.3,-210l232.179,0c51.83,55.043 162.617,101.094 297.518,92c27.563,-1.858 45.6,3.178 56,13.757l0,83.669c-35,95.453 -144.1,243.066 -218,360.574c-28.631,45.528 -59.231,63.959 -88.053,63.953c-93.99,-0.019 -168.944,-196.115 -93.944,-287.953z" id="Path_197"/>
   <circle opacity="0.2" fill="#fff" r="13.5" cy="571.5" cx="499.5" id="Ellipse_68"/>
   <circle opacity="0.2" fill="#fff" r="15.5" cy="62.5" cx="340.5" id="Ellipse_69"/>
   <circle opacity="0.2" fill="#fff" r="8" cy="55" cx="1158" id="Ellipse_70"/>
   <g opacity="0.2" fill="none" transform="matrix(0.259,0.966,-0.966,0.259,73.396,351.263) " id="Path_155">
    <path id="svg_1" d="m28.40836,9.89156a12.26,12.26 0 0 1 21.289,0l19.745,34.546a12.26,12.26 0 0 1 -10.645,18.342l-39.481,0a12.26,12.26 0 0 1 -10.644,-18.342l19.736,-34.546z"/>
    <path id="svg_2" fill="#fff" d="m39.05726,11.71394c-0.74332,0 -2.59172,0.20915 -3.69874,2.14647l-19.74055,34.54592c-1.09853,1.92244 -0.35603,3.61385 0.0142,4.25181c0.37023,0.63797 1.47039,2.12182 3.68455,2.12182l39.48107,0c2.21417,0 3.31432,-1.48385 3.68455,-2.12182c0.37022,-0.63796 1.11273,-2.32935 0.01418,-4.2518l-19.74051,-34.54593c-1.10705,-1.93732 -2.95544,-2.14647 -3.69875,-2.14647m0,-8c4.1457,0 8.2914,2.05912 10.64468,6.17735l19.74054,34.54594c4.67043,8.17324 -1.23116,18.34273 -10.64469,18.34273l-39.48107,0c-9.41353,0 -15.31512,-10.16949 -10.6447,-18.34273l19.74055,-34.54594c2.35328,-4.11823 6.49898,-6.17735 10.64469,-6.17735z"/>
   </g>
   <path opacity="0.2" stroke="rgba(0,0,0,0)" fill="#fff" d="m1259.49902,605a23.348,23.348 0 0 1 -16.617,-6.883a23.345,23.345 0 0 1 -6.883,-16.617a23.347,23.347 0 0 1 6.883,-16.618a23.348,23.348 0 0 1 16.617,-6.882a23.348,23.348 0 0 1 16.617,6.883a23.347,23.347 0 0 1 6.883,16.617a23.345,23.345 0 0 1 -6.883,16.617a23.348,23.348 0 0 1 -16.617,6.883zm0,-40.286a16.805,16.805 0 0 0 -16.785,16.786a16.8,16.8 0 0 0 16.785,16.786a16.8,16.8 0 0 0 16.786,-16.786a16.805,16.805 0 0 0 -16.786,-16.786z" id="Path_195"/>
  </g>
 </g>
</svg>