<svg width="1366" height="769" xmlns="http://www.w3.org/2000/svg" xmlns:xlink="http://www.w3.org/1999/xlink">
 <defs>
  <linearGradient gradientUnits="objectBoundingBox" y2="1.068" x2="0.189" y1="0.022" x1="1.171" id="linear-gradient-2">
   <stop stop-opacity="0.6" stop-color="#fff" offset="0"/>
   <stop stop-opacity="0.051" stop-color="#fff" offset="0.686"/>
   <stop stop-opacity="0" stop-color="#fff" offset="1"/>
  </linearGradient>
  <linearGradient xlink:href="#linear-gradient-2" y2="0.5" x2="1" y1="0.5" x1="0" id="linear-gradient-6"/>
 </defs>
 <g>
  <title>background</title>
  <rect fill="none" id="canvas_background" height="602" width="802" y="-1" x="-1"/>
 </g>
 <g>
  <title>Layer 1</title>
  <path fill="#000000" d="m825.493,769l540.507,0l0,-769l-578.33,0c-34.018,19.44 -80.6,54.269 -112.17,112.5c-46.16,85.132 -57.327,214.893 2,262c67.775,53.815 176.03,-41.145 240,6c71.738,52.87 78.814,222.855 -4,323c-25.645,31.011 -56.932,51.7 -88.007,65.5z" id="Path_2"/>
  <path fill="url(#linear-gradient-2)" opacity="0.3" d="m1230,181c15.286,107.84 67.584,118.235 80,206c17.149,121.223 -59.333,264.966 -124,264c-47.963,-0.716 -26.671,-130.619 -132,-228c-77.4,-71.562 -197.516,-104.326 -228,-70c-5.268,5.932 -7.568,13.54 -7.932,22.159c36.815,-9.023 72.151,-14.765 99.432,5.341c51.19,37.726 69.442,135.081 45.617,224.144a994.57,994.57 0 0 1 72.883,80.356c31.9,39.344 47.912,65.3 60.586,84l269.414,0l0,-769l-109.987,0c-33.066,44.995 -33.504,128.156 -26.013,181z" id="Path_3"/>
  <path fill="#000000" d="m302.5,640.5c-114.359,-14.23 -240.6,29.614 -302.5,77.58l0,50.92l568.728,0c-85.86,-40.69 -146.415,-113.591 -266.228,-128.5z" id="Path_5"/>
  <path fill="#000000" d="m0,675.837l0,79.163l523.728,0c-85.86,-40.69 -146.415,-113.591 -266.228,-128.5c-91.15,-11.342 -189.849,14.21 -257.5,49.337z" id="Path_6"/>
  <circle opacity="0.2" fill="#fff" r="11.5" cy="86.5" cx="1107.5" id="Ellipse_1"/>
  <circle opacity="0.12" fill="#fff" r="3" cy="365" cx="752" id="Ellipse_2"/>
  <circle opacity="0.2" fill="#fff" r="8" cy="412" cx="1126" id="Ellipse_3"/>
  <circle opacity="0.13" fill="#fff" r="7" cy="42" cx="782" id="Ellipse_4"/>
  <path fill="url(#linear-gradient-6)" opacity="0.3" d="m816,287c27.106,-49.532 13.91,-119.492 -20,-138c-25.707,-14.031 -48.9,9.377 -72,-6c-22.227,-14.8 -19.04,-48.639 -19.675,-73.317a271.263,271.263 0 0 0 -28.825,42.817c-18.479,34.08 -31.341,75.311 -36.327,115.529a108.1,108.1 0 0 1 22.827,31.971c20.979,43.72 3.722,69.376 23,84c27.767,21.064 101.612,-3.3 131,-57z" id="Path_7"/>
 </g>
</svg>